<?xml version="1.0" standalone="no"?>
<!DOCTYPE svg PUBLIC "-//W3C//DTD SVG 20010904//EN"
 "http://www.w3.org/TR/2001/REC-SVG-20010904/DTD/svg10.dtd">
<svg version="1.0" xmlns="http://www.w3.org/2000/svg"
 width="640.000000pt" height="640.000000pt" viewBox="0 0 640.000000 640.000000"
 preserveAspectRatio="xMidYMid meet">
<metadata>
Created by potrace 1.14, written by Peter Selinger 2001-2017
</metadata>
<g transform="translate(0.000000,640.000000) scale(0.100000,-0.100000)"
fill="#000000" stroke="none">
<path d="M0 3200 l0 -3200 3200 0 3200 0 0 3200 0 3200 -3200 0 -3200 0 0
-3200z m1482 723 c215 -101 279 -356 141 -556 -22 -32 -25 -42 -15 -55 76
-107 102 -204 82 -305 -24 -124 -96 -219 -206 -273 l-59 -29 -527 -3 -528 -3
132 228 c72 125 153 266 180 312 29 49 47 90 43 99 -5 14 -285 504 -337 590
l-20 33 523 -3 524 -3 67 -32z m1988 -96 c56 -23 100 -71 100 -108 0 -16 -8
-19 -56 -19 -48 0 -60 4 -80 25 -20 22 -32 25 -87 25 -52 0 -67 -4 -82 -20
-29 -32 -2 -50 91 -61 167 -18 204 -34 224 -93 37 -114 -84 -207 -253 -193
-111 10 -184 56 -202 130 l-7 27 60 0 c54 0 64 -3 90 -30 27 -27 37 -30 89
-30 61 0 103 19 103 45 0 22 -28 32 -129 44 -51 7 -108 18 -125 25 -93 39
-104 165 -19 217 48 30 79 37 158 38 50 0 85 -6 125 -22z m1876 8 c55 -16 109
-64 119 -107 l7 -28 -60 0 c-52 0 -65 4 -86 25 -21 21 -35 25 -81 25 -65 0
-95 -13 -95 -40 0 -27 6 -29 127 -44 163 -20 203 -46 203 -134 0 -53 -30 -95
-87 -123 -40 -20 -63 -24 -138 -24 -76 0 -98 4 -140 25 -51 25 -95 77 -95 111
0 17 8 19 64 19 55 0 64 -3 69 -20 7 -26 46 -40 112 -40 60 0 101 23 90 52 -9
22 -21 25 -128 37 -116 13 -173 39 -193 87 -31 75 17 159 103 182 57 15 153
14 209 -3z m584 -16 c43 -23 90 -78 90 -105 0 -10 -16 -14 -60 -14 -50 0 -63
4 -84 25 -21 21 -35 25 -81 25 -65 0 -95 -13 -95 -41 0 -25 26 -34 120 -43
105 -9 149 -23 183 -57 27 -27 29 -35 25 -80 -9 -91 -96 -149 -223 -149 -115
0 -235 68 -235 134 0 25 2 26 57 26 50 0 60 -3 79 -27 18 -23 30 -27 86 -31
72 -5 108 8 108 37 0 30 -20 39 -121 50 -116 13 -163 31 -190 74 -45 72 -2
162 91 192 70 23 195 15 250 -16z m-3489 -17 c40 -45 40 -99 0 -144 l-28 -32
31 -15 c17 -9 37 -27 44 -41 17 -33 9 -105 -14 -132 -38 -42 -73 -48 -269 -48
l-185 0 0 226 0 225 196 -3 196 -3 29 -33z m269 -106 c0 -139 1 -146 24 -173
21 -24 32 -28 76 -28 44 0 55 4 76 28 23 27 24 34 24 173 l0 144 65 0 65 0 0
-137 c0 -167 -9 -205 -64 -259 -116 -116 -344 -67 -385 83 -6 21 -11 100 -11
176 l0 137 65 0 65 0 0 -144z m1090 -81 l0 -225 -65 0 -65 0 0 225 0 225 65 0
65 0 0 -225z m380 73 l105 -151 3 152 3 151 59 0 60 0 0 -225 0 -225 -79 0
-80 0 -57 83 c-31 45 -80 115 -108 156 l-51 73 -3 -156 -3 -156 -59 0 -60 0 0
225 0 225 83 0 82 -1 105 -151z m740 102 l0 -50 -150 0 -150 0 0 -40 0 -40
145 0 145 0 0 -45 0 -45 -145 0 -145 0 0 -40 0 -40 155 0 155 0 0 -50 0 -50
-210 0 -210 0 0 225 0 225 205 0 205 0 0 -50z m-1167 -526 c54 -18 107 -73
107 -109 0 -24 -3 -25 -55 -25 -44 0 -59 5 -78 24 -49 48 -177 42 -177 -9 0
-13 4 -26 9 -29 4 -3 51 -10 102 -16 174 -20 215 -45 213 -131 -1 -61 -24 -95
-86 -126 -142 -71 -338 -16 -373 105 -6 21 -4 22 60 22 50 0 67 -4 72 -15 22
-58 203 -58 203 -1 0 26 -29 37 -120 47 -94 9 -164 33 -188 62 -20 24 -26 92
-12 127 14 33 48 61 95 78 46 16 175 14 228 -4z m2150 0 c54 -18 107 -73 107
-109 0 -24 -3 -25 -55 -25 -44 0 -59 5 -78 24 -31 31 -87 42 -138 27 -31 -9
-39 -17 -39 -36 0 -13 4 -26 9 -29 4 -3 51 -10 102 -16 173 -20 214 -45 214
-130 0 -60 -24 -96 -86 -127 -115 -59 -288 -30 -350 57 -9 14 -20 35 -24 48
-6 21 -4 22 60 22 50 0 67 -4 72 -15 22 -58 203 -58 203 -1 0 26 -29 37 -120
47 -94 9 -164 33 -189 62 -7 10 -16 37 -18 61 -8 71 28 117 117 149 33 12 168
6 213 -9z m-3613 -146 c34 -84 65 -156 68 -160 4 -4 36 65 72 153 l65 159 98
0 97 0 0 -225 0 -225 -60 0 -60 0 -2 165 -3 165 -70 -163 -71 -162 -64 0 -64
0 -70 163 -71 164 -3 -166 -2 -166 -60 0 -60 0 0 225 0 225 99 0 98 0 63 -152z
m965 -65 c54 -120 100 -221 102 -225 2 -5 -26 -8 -62 -8 l-66 0 -20 45 -20 45
-115 0 -114 0 -22 -45 -22 -45 -63 0 c-35 0 -63 2 -63 5 0 5 188 422 197 438
2 4 42 7 87 7 l83 0 98 -217z m1162 165 l-2 -53 -87 -3 -88 -3 0 -169 0 -170
-60 0 -60 0 0 170 0 170 -85 0 -85 0 0 55 0 55 235 0 235 0 -3 -52z m503 2 l0
-50 -150 0 -150 0 0 -40 0 -40 146 0 145 0 -3 -42 -3 -43 -142 -3 -143 -3 0
-39 0 -40 156 0 155 0 -3 -47 -3 -48 -207 -3 -208 -2 0 225 0 225 205 0 205 0
0 -50z m480 31 c53 -28 74 -63 74 -121 0 -58 -23 -97 -72 -120 -17 -8 -32 -18
-32 -21 0 -4 24 -38 53 -75 78 -101 78 -94 -2 -94 l-70 0 -61 80 c-55 73 -64
80 -95 80 l-35 0 0 -80 0 -80 -60 0 -60 0 0 225 0 225 163 0 c139 0 167 -3
197 -19z m-2770 -696 l0 -85 60 0 c47 0 60 -3 60 -15 0 -12 -16 -15 -80 -15
l-80 0 0 100 c0 93 1 100 20 100 18 0 20 -7 20 -85z m920 -15 c0 -82 -3 -100
-15 -100 -12 0 -15 18 -15 100 0 82 3 100 15 100 12 0 15 -18 15 -100z m831
25 c19 -41 37 -75 40 -75 4 0 22 34 40 75 24 52 39 75 52 75 9 0 17 -2 17 -5
0 -3 -21 -48 -47 -100 -33 -67 -53 -95 -65 -95 -10 0 -18 2 -18 4 0 2 -20 47
-45 100 -39 84 -42 96 -26 96 13 0 28 -21 52 -75z m1079 60 c0 -12 -14 -15
-70 -15 -68 0 -70 -1 -70 -25 0 -24 2 -25 65 -25 51 0 65 -3 65 -15 0 -12 -14
-15 -65 -15 l-65 0 0 -30 0 -30 70 0 c56 0 70 -3 70 -15 0 -12 -16 -15 -85
-15 l-85 0 0 100 0 100 85 0 c69 0 85 -3 85 -15z"/>
<path d="M760 3735 c0 -3 52 -96 115 -206 l115 -200 -115 -199 c-63 -109 -115
-201 -115 -204 0 -3 133 -6 295 -6 325 0 340 2 388 59 22 26 27 43 27 85 0 98
-64 156 -172 156 l-56 0 -61 108 -60 107 127 5 c136 5 154 11 196 61 20 24 26
41 26 80 0 60 -19 100 -62 131 -33 23 -37 23 -340 26 -170 2 -308 0 -308 -3z"/>
<path d="M2136 3719 c-3 -17 -6 -36 -6 -41 0 -5 46 -7 103 -6 l102 3 0 35 0
35 -96 3 -96 3 -7 -32z"/>
<path d="M2136 3558 c-3 -13 -6 -35 -6 -50 l0 -28 108 0 c117 0 132 6 132 52
0 39 -25 48 -133 48 -90 0 -95 -1 -101 -22z"/>
<path d="M3057 3140 c-9 -19 -25 -56 -36 -82 l-20 -48 70 0 c81 0 79 -6 29
104 l-28 61 -15 -35z"/>
<path d="M5160 3130 l0 -50 76 0 c87 0 114 11 114 45 0 43 -24 55 -111 55
l-79 0 0 -50z"/>
</g>
</svg>
